<svg width="419" height="405" viewBox="0 0 419 405" fill="none" xmlns="http://www.w3.org/2000/svg">
<rect width="308.847" height="185.308" transform="matrix(0.847693 0.530487 -0.847693 0.530487 157.084 0)" fill="#313131"/>
<rect width="18.5308" height="142.857" transform="matrix(0.847693 0.530487 -2.03249e-08 1 6.10352e-05 98.3035)" fill="#242424"/>
<rect width="18.5308" height="142.857" transform="matrix(0.847693 0.530487 -2.03249e-08 1 246.079 252.312)" fill="#242424"/>
<path d="M389.676 181.861L403.268 173.342L403.268 316.199L387.56 306.369L389.676 181.861Z" fill="#242424"/>
<rect width="18.5308" height="142.857" transform="matrix(0.847693 -0.530487 2.03249e-08 1 403.28 173.342)" fill="#484848"/>
<path d="M15.7202 107.948L29.6264 116.707L31.4286 240.978L15.7202 250.808L15.7202 107.948Z" fill="#484848"/>
<rect width="18.5308" height="142.368" transform="matrix(0.847693 -0.530487 2.03249e-08 1 261.799 262.143)" fill="#484848"/>
<rect width="271.748" height="13.4153" transform="matrix(0.847693 0.530487 -2.03249e-08 1 15.7202 107.479)" fill="#262626"/>
<rect width="185.445" height="19.6607" transform="matrix(0.847693 -0.530487 2.03249e-08 1 261.799 262.143)" fill="#484848"/>
<rect width="14.4077" height="14.4077" transform="matrix(0.847693 0.530487 -0.847693 0.530487 96.9404 58.3853)" fill="#222222"/>
<rect width="15.8485" height="15.8485" transform="matrix(0.847693 0.530487 -0.847693 0.530487 96.8926 15.8896)" fill="#6FB047"/>
<rect width="10.5575" height="10.5575" transform="matrix(0.847693 0.530487 -0.847693 0.530487 96.9203 60.3724)" fill="#484848"/>
<path d="M96.9203 60.3724L105.87 65.973L96.9203 71.5736L96.9203 60.3724Z" fill="#2F2F2F"/>
<rect width="14.4077" height="22.9293" transform="matrix(0.847693 0.530487 -2.03249e-08 1 84.7272 66.0282)" fill="#242424"/>
<rect width="15.8485" height="22.9293" transform="matrix(0.847693 0.530487 -2.03249e-08 1 83.458 24.2969)" fill="#76BB4C"/>
<rect width="2.16115" height="16.0221" transform="matrix(0.847693 0.530487 -2.03249e-08 1 95.0927 54.4109)" fill="#A38A4C"/>
<rect width="14.4077" height="22.9293" transform="matrix(0.847693 -0.530487 2.03249e-08 1 96.926 73.5951)" fill="#484848"/>
<rect width="15.8485" height="22.9293" transform="matrix(0.847693 -0.530487 2.03249e-08 1 96.926 32.7045)" fill="#89DA57"/>
<path d="M96.926 55.6224L98.758 54.476L98.758 70.4085L96.926 71.5549L96.926 55.6224Z" fill="#C1A55B"/>
<rect width="14.4077" height="14.4077" transform="matrix(0.847693 0.530487 -0.847693 0.530487 275.35 169.431)" fill="#222222"/>
<rect width="15.8485" height="15.8485" transform="matrix(0.847693 0.530487 -0.847693 0.530487 275.302 126.935)" fill="#6FB047"/>
<rect width="10.5575" height="10.5575" transform="matrix(0.847693 0.530487 -0.847693 0.530487 275.33 171.418)" fill="#484848"/>
<path d="M275.33 171.417L284.279 177.018L275.33 182.619L275.33 171.417Z" fill="#2F2F2F"/>
<rect width="14.4077" height="22.9293" transform="matrix(0.847693 0.530487 -2.03249e-08 1 263.137 177.073)" fill="#242424"/>
<rect width="15.8485" height="22.9293" transform="matrix(0.847693 0.530487 -2.03249e-08 1 261.868 135.342)" fill="#76BB4C"/>
<rect width="2.16115" height="16.0221" transform="matrix(0.847693 0.530487 -2.03249e-08 1 273.502 165.456)" fill="#A38A4C"/>
<rect width="14.4077" height="22.9293" transform="matrix(0.847693 -0.530487 2.03249e-08 1 275.336 184.64)" fill="#484848"/>
<rect width="15.8485" height="22.9293" transform="matrix(0.847693 -0.530487 2.03249e-08 1 275.336 143.75)" fill="#89DA57"/>
<path d="M275.336 166.668L277.168 165.521L277.168 181.454L275.336 182.6L275.336 166.668Z" fill="#C1A55B"/>
<rect width="107.085" height="65.8986" transform="matrix(0.847693 0.530487 -0.847693 0.530487 152.813 97.3705)" fill="#0D0D0D"/>
<rect width="37.5622" height="20.0991" rx="2.86666" transform="matrix(0.847693 0.530487 -0.847693 0.530487 146.249 138.359)" fill="#242424"/>
<rect width="6.58986" height="4.9424" rx="2.4712" transform="matrix(0.847693 0.530487 -0.847693 0.530487 144.713 107.683)" fill="#242424"/>
<rect width="6.58986" height="4.9424" rx="2.4712" transform="matrix(0.847693 0.530487 -0.847693 0.530487 150.299 104.187)" fill="#242424"/>
<rect width="6.58986" height="4.9424" rx="2.4712" transform="matrix(0.847693 0.530487 -0.847693 0.530487 172.644 125.162)" fill="#242424"/>
<rect width="6.58986" height="4.9424" rx="2.4712" transform="matrix(0.847693 0.530487 -0.847693 0.530487 178.23 121.667)" fill="#242424"/>
<rect width="6.58986" height="4.9424" rx="2.4712" transform="matrix(0.847693 0.530487 -0.847693 0.530487 200.575 142.641)" fill="#242424"/>
<rect width="6.58986" height="4.9424" rx="2.4712" transform="matrix(0.847693 0.530487 -0.847693 0.530487 206.161 139.146)" fill="#242424"/>
<rect width="6.58986" height="4.9424" rx="2.4712" transform="matrix(0.847693 0.530487 -0.847693 0.530487 133.541 114.675)" fill="#242424"/>
<rect width="6.58986" height="4.9424" rx="2.4712" transform="matrix(0.847693 0.530487 -0.847693 0.530487 161.472 132.154)" fill="#242424"/>
<rect width="6.58986" height="4.9424" rx="2.4712" transform="matrix(0.847693 0.530487 -0.847693 0.530487 189.402 149.633)" fill="#242424"/>
<rect width="14.8272" height="4.9424" rx="2.4712" transform="matrix(0.847693 0.530487 -0.847693 0.530487 139.127 111.179)" fill="#242424"/>
<rect width="6.58986" height="4.9424" rx="2.4712" transform="matrix(0.847693 0.530487 -0.847693 0.530487 167.058 128.658)" fill="#242424"/>
<rect width="6.58986" height="4.9424" rx="2.4712" transform="matrix(0.847693 0.530487 -0.847693 0.530487 194.989 146.137)" fill="#242424"/>
<rect width="6.58986" height="4.9424" rx="2.4712" transform="matrix(0.847693 0.530487 -0.847693 0.530487 127.954 118.171)" fill="#242424"/>
<rect width="31.3019" height="4.9424" rx="2.4712" transform="matrix(0.847693 0.530487 -0.847693 0.530487 155.885 135.65)" fill="#242424"/>
<rect width="6.58986" height="4.9424" rx="2.4712" transform="matrix(0.847693 0.530487 -0.847693 0.530487 183.816 153.129)" fill="#242424"/>
<rect width="6.58986" height="4.9424" rx="2.4712" transform="matrix(0.847693 0.530487 -0.847693 0.530487 158.678 116.423)" fill="#242424"/>
<rect width="6.58986" height="4.9424" rx="2.4712" transform="matrix(0.847693 0.530487 -0.847693 0.530487 164.265 112.927)" fill="#242424"/>
<rect width="6.58986" height="4.9424" rx="2.4712" transform="matrix(0.847693 0.530487 -0.847693 0.530487 186.609 133.902)" fill="#242424"/>
<rect width="6.58986" height="4.9424" rx="2.4712" transform="matrix(0.847693 0.530487 -0.847693 0.530487 192.196 130.406)" fill="#242424"/>
<rect width="6.58986" height="4.9424" rx="2.4712" transform="matrix(0.847693 0.530487 -0.847693 0.530487 214.54 151.381)" fill="#242424"/>
<rect width="6.58986" height="4.9424" rx="2.4712" transform="matrix(0.847693 0.530487 -0.847693 0.530487 220.126 147.885)" fill="#242424"/>
<rect width="6.58986" height="4.9424" rx="2.4712" transform="matrix(0.847693 0.530487 -0.847693 0.530487 147.506 123.415)" fill="#242424"/>
<rect width="6.58986" height="4.9424" rx="2.4712" transform="matrix(0.847693 0.530487 -0.847693 0.530487 175.437 140.894)" fill="#242424"/>
<rect width="6.58986" height="4.9424" rx="2.4712" transform="matrix(0.847693 0.530487 -0.847693 0.530487 203.368 158.373)" fill="#242424"/>
<rect width="6.58986" height="4.9424" rx="2.4712" transform="matrix(0.847693 0.530487 -0.847693 0.530487 153.092 119.919)" fill="#242424"/>
<rect width="6.58986" height="4.9424" rx="2.4712" transform="matrix(0.847693 0.530487 -0.847693 0.530487 181.023 137.398)" fill="#242424"/>
<rect width="6.58986" height="4.9424" rx="2.4712" transform="matrix(0.847693 0.530487 -0.847693 0.530487 141.92 126.91)" fill="#242424"/>
<rect width="6.58986" height="4.9424" rx="2.4712" transform="matrix(0.847693 0.530487 -0.847693 0.530487 197.782 161.869)" fill="#242424"/>
<rect width="6.58986" height="4.9424" rx="2.4712" transform="matrix(0.847693 0.530487 -0.847693 0.530487 151.696 112.053)" fill="#242424"/>
<rect width="6.58986" height="4.9424" rx="2.4712" transform="matrix(0.847693 0.530487 -0.847693 0.530487 157.282 108.557)" fill="#242424"/>
<rect width="6.58986" height="4.9424" rx="2.4712" transform="matrix(0.847693 0.530487 -0.847693 0.530487 179.627 129.532)" fill="#242424"/>
<rect width="6.58986" height="4.9424" rx="2.4712" transform="matrix(0.847693 0.530487 -0.847693 0.530487 185.213 126.036)" fill="#242424"/>
<rect width="6.58986" height="4.9424" rx="2.4712" transform="matrix(0.847693 0.530487 -0.847693 0.530487 207.558 147.011)" fill="#242424"/>
<rect width="6.58986" height="4.9424" rx="2.4712" transform="matrix(0.847693 0.530487 -0.847693 0.530487 213.144 143.516)" fill="#242424"/>
<rect width="6.58986" height="4.9424" rx="2.4712" transform="matrix(0.847693 0.530487 -0.847693 0.530487 140.523 119.045)" fill="#242424"/>
<rect width="6.58986" height="4.9424" rx="2.4712" transform="matrix(0.847693 0.530487 -0.847693 0.530487 168.454 136.524)" fill="#242424"/>
<rect width="6.58986" height="4.9424" rx="2.4712" transform="matrix(0.847693 0.530487 -0.847693 0.530487 196.385 154.003)" fill="#242424"/>
<rect width="6.58986" height="4.9424" rx="2.4712" transform="matrix(0.847693 0.530487 -0.847693 0.530487 174.041 133.028)" fill="#242424"/>
<rect width="6.58986" height="4.9424" rx="2.4712" transform="matrix(0.847693 0.530487 -0.847693 0.530487 201.971 150.507)" fill="#242424"/>
<rect width="6.58986" height="4.9424" rx="2.4712" transform="matrix(0.847693 0.530487 -0.847693 0.530487 134.937 122.541)" fill="#242424"/>
<rect width="6.58986" height="4.9424" rx="2.4712" transform="matrix(0.847693 0.530487 -0.847693 0.530487 190.799 157.499)" fill="#242424"/>
<rect width="6.58986" height="4.9424" rx="2.4712" transform="matrix(0.847693 0.530487 -0.847693 0.530487 165.661 120.792)" fill="#242424"/>
<rect width="6.58986" height="4.9424" rx="2.4712" transform="matrix(0.847693 0.530487 -0.847693 0.530487 171.247 117.297)" fill="#242424"/>
<rect width="6.58986" height="4.9424" rx="2.4712" transform="matrix(0.847693 0.530487 -0.847693 0.530487 193.592 138.272)" fill="#242424"/>
<rect width="6.58986" height="4.9424" rx="2.4712" transform="matrix(0.847693 0.530487 -0.847693 0.530487 199.178 134.776)" fill="#242424"/>
<rect width="6.58986" height="4.9424" rx="2.4712" transform="matrix(0.847693 0.530487 -0.847693 0.530487 221.523 155.751)" fill="#242424"/>
<rect width="6.58986" height="4.9424" rx="2.4712" transform="matrix(0.847693 0.530487 -0.847693 0.530487 227.109 152.255)" fill="#242424"/>
<rect width="6.58986" height="4.9424" rx="2.4712" transform="matrix(0.847693 0.530487 -0.847693 0.530487 154.489 127.784)" fill="#242424"/>
<rect width="6.58986" height="4.9424" rx="2.4712" transform="matrix(0.847693 0.530487 -0.847693 0.530487 182.42 145.263)" fill="#242424"/>
<rect width="6.58986" height="4.9424" rx="2.4712" transform="matrix(0.847693 0.530487 -0.847693 0.530487 210.351 162.742)" fill="#242424"/>
<rect width="6.58986" height="4.9424" rx="2.4712" transform="matrix(0.847693 0.530487 -0.847693 0.530487 160.075 124.288)" fill="#242424"/>
<rect width="6.58986" height="4.9424" rx="2.4712" transform="matrix(0.847693 0.530487 -0.847693 0.530487 188.006 141.768)" fill="#242424"/>
<rect width="14.8272" height="4.9424" rx="2.4712" transform="matrix(0.847693 0.530487 -0.847693 0.530487 208.954 154.877)" fill="#242424"/>
<rect width="6.58986" height="4.9424" rx="2.4712" transform="matrix(0.847693 0.530487 -0.847693 0.530487 148.903 131.28)" fill="#242424"/>
<rect width="6.58986" height="4.9424" rx="2.4712" transform="matrix(0.847693 0.530487 -0.847693 0.530487 204.765 166.239)" fill="#242424"/>
<rect width="107.085" height="73.063" transform="matrix(0.847693 0.530487 -2.03249e-08 1 153.069 24.4823)" fill="#0A0A0A"/>
<rect width="102.143" height="65.3722" rx="2.86666" transform="matrix(0.847693 0.530487 -2.03249e-08 1 155.164 28.4152)" fill="black"/>
<rect width="20.5933" height="1.22354" rx="0.611772" transform="matrix(0.847693 0.530487 -2.03249e-08 1 159.354 41.0002)" fill="#05DCA8"/>
<rect width="20.5933" height="1.22354" rx="0.611772" transform="matrix(0.847693 0.530487 -2.03249e-08 1 159.354 67.2189)" fill="#7005DC"/>
<rect width="20.5933" height="1.22354" rx="0.611772" transform="matrix(0.847693 0.530487 -2.03249e-08 1 179.604 79.8914)" fill="#05DCA8"/>
<rect width="9.72005" height="1.22354" rx="0.611772" transform="matrix(0.847693 0.530487 -2.03249e-08 1 159.354 49.7396)" fill="#DCC605"/>
<rect width="9.72005" height="1.22354" rx="0.611772" transform="matrix(0.847693 0.530487 -2.03249e-08 1 181.419 63.5482)" fill="#7005DC"/>
<rect width="9.72005" height="1.22354" rx="0.611772" transform="matrix(0.847693 0.530487 -2.03249e-08 1 170.387 56.644)" fill="#06CAF5"/>
<rect width="9.72005" height="1.22354" rx="0.611772" transform="matrix(0.847693 0.530487 -2.03249e-08 1 179.604 53.6725)" fill="#DCC605"/>
<rect width="9.72005" height="1.22354" rx="0.611772" transform="matrix(0.847693 0.530487 -2.03249e-08 1 159.354 75.9585)" fill="#05DCA8"/>
<rect width="27.3479" height="1.22354" rx="0.611772" transform="matrix(0.847693 0.530487 -2.03249e-08 1 159.354 58.4792)" fill="#06CAF5"/>
<rect width="27.3479" height="1.22354" rx="0.611772" transform="matrix(0.847693 0.530487 -2.03249e-08 1 159.354 84.6981)" fill="#7005DC"/>
<rect width="27.3479" height="1.22354" rx="0.611772" transform="matrix(0.847693 0.530487 -2.03249e-08 1 170.387 82.8627)" fill="#06CAF5"/>
<rect width="68.6741" height="2.79667" transform="matrix(0.847693 -0.530487 2.03249e-08 1 187.74 188.92)" fill="#090909"/>
<rect width="107.101" height="2.79667" transform="matrix(0.847693 0.530487 -2.03249e-08 1 96.951 132.104)" fill="#161616"/>
<rect width="107.008" height="2.57737" transform="matrix(0.847693 0.530487 -0.847693 0.530487 155.249 23.1118)" fill="#232323"/>
<path d="M243.697 81.2897L245.954 79.8768L245.954 152.504L243.697 153.917L243.697 81.2897Z" fill="#080808"/>
</svg>
