<svg width="349" height="585" viewBox="0 0 349 585" fill="none" xmlns="http://www.w3.org/2000/svg">
<path d="M166.171 561.556L165.369 542.936H197.004V561.556H166.171Z" fill="#C6C6C7"/>
<path d="M248.49 583.993C248.586 574.281 247.087 568.373 237.525 564.404C227.963 560.434 218.955 552.804 202.412 546.262C202.412 546.262 200.234 545.902 196.69 547.595C193.665 549.038 189.779 552.58 183.925 552.538C177.568 552.487 171.903 551.298 168.383 549.669C166.863 545.991 163.489 545.966 163.489 545.966C163.489 545.966 158.739 553.947 158.66 561.966C158.581 569.981 158.589 583.299 158.589 583.299L248.49 583.993Z" fill="#504D5A"/>
<path d="M209.794 556.985C209.519 557.864 210.46 558.66 211.442 558.38L217.791 556.573V561.644C217.791 562.513 218.842 563.065 219.707 562.652L224.019 560.589V564.395C224.019 565.028 224.6 565.541 225.316 565.541C226.033 565.541 226.614 565.028 226.614 564.395V558.665C226.614 557.797 225.563 557.245 224.698 557.658L220.386 559.721V555.001C220.386 554.223 219.528 553.672 218.69 553.91L212.934 555.549L214.371 550.951C214.662 550.02 213.598 549.208 212.597 549.598L205.628 552.312C205.666 551.552 205.741 550.939 205.881 550.269C206.029 549.559 206.24 548.923 206.521 548.365C206.812 547.787 206.518 547.11 205.863 546.853C205.208 546.596 204.441 546.856 204.15 547.434C203.78 548.17 203.512 548.977 203.329 549.855C203.059 551.148 203 552.208 203 554.082C203 554.91 203.963 555.464 204.821 555.13L211.143 552.668L209.794 556.985Z" fill="white"/>
<path d="M161.481 550.189C163.328 552.402 169.987 553.727 172.492 554.053C174.997 554.379 177.682 554.091 176.607 557.751C175.848 560.337 168.548 559.292 165.693 559.271C163.372 559.249 160.118 565.445 158.906 563.342C158.906 556.148 160.443 552.25 161.481 550.189Z" fill="#29282D"/>
<path d="M244.872 565.148C241.938 564.209 238.831 563.498 232.874 562.305L235.406 568.741L235.333 576.071L252.289 576.202C252.98 576.206 254.217 575.394 253.627 572.089C252.889 567.958 249.041 566.481 244.872 565.148Z" fill="#29282D"/>
<path d="M216.823 563.831L208.925 577.123L216.278 580.528L224.177 567.236L216.823 563.831Z" fill="white"/>
<path d="M205.94 558.799L196.474 574.77L203.832 578.168L213.297 562.198L205.94 558.799Z" fill="white"/>
<path d="M195.267 553.268L182.18 575.776L189.567 579.124L202.655 556.615L195.267 553.268Z" fill="white"/>
<path d="M157.564 582.042L158.06 574.332L234.668 575.381L253.769 574.154L254.353 580.061C254.555 582.105 252.818 583.895 250.501 584.035L234.573 585L159.605 583.98C158.425 583.963 157.498 583.083 157.564 582.042Z" fill="#DDDDDD"/>
<path d="M124.643 561.556L125.446 542.936H93.8101V561.556H124.643Z" fill="#C6C6C7"/>
<path d="M42.3245 583.993C42.2287 574.281 43.727 568.373 53.2896 564.404C62.8518 560.434 71.8593 552.804 88.4024 546.262C88.4024 546.262 90.58 545.902 94.1246 547.595C97.1496 549.038 101.035 552.58 106.889 552.538C113.246 552.487 118.912 551.298 122.431 549.669C123.952 545.991 127.325 545.966 127.325 545.966C127.325 545.966 132.075 553.947 132.154 561.966C132.234 569.981 132.225 583.299 132.225 583.299L42.3245 583.993Z" fill="#504D5A"/>
<path d="M81.0208 556.985C81.2953 557.864 80.3543 558.66 79.3719 558.38L73.0234 556.573V561.644C73.0234 562.513 71.9723 563.065 71.1078 562.652L66.7955 560.589V564.395C66.7955 565.028 66.2146 565.541 65.498 565.541C64.7814 565.541 64.2005 565.028 64.2005 564.395V558.665C64.2005 557.797 65.2516 557.245 66.1161 557.658L70.4285 559.721V555.001C70.4285 554.223 71.2863 553.672 72.124 553.91L77.88 555.549L76.4433 550.951C76.1524 550.02 77.2169 549.208 78.2177 549.598L85.1859 552.312C85.1482 551.552 85.0731 550.939 84.9334 550.269C84.7854 549.559 84.5745 548.923 84.2933 548.365C84.0021 547.787 84.2968 547.11 84.9516 546.853C85.6063 546.596 86.3731 546.856 86.6643 547.434C87.0349 548.17 87.3024 548.977 87.4855 549.855C87.7552 551.148 87.8145 552.208 87.8145 554.082C87.8145 554.91 86.851 555.464 85.9934 555.13L79.6719 552.668L81.0208 556.985Z" fill="white"/>
<path d="M129.333 550.189C127.487 552.402 120.828 553.727 118.323 554.053C115.817 554.379 113.133 554.091 114.207 557.751C114.967 560.337 122.267 559.292 125.121 559.271C127.442 559.249 130.697 565.445 131.909 563.342C131.909 556.148 130.371 552.25 129.333 550.189Z" fill="#29282D"/>
<path d="M45.9419 565.148C48.8759 564.209 51.9829 563.498 57.94 562.305L55.4082 568.741L55.481 576.071L38.5258 576.202C37.8341 576.206 36.5974 575.394 37.1875 572.089C37.9252 567.958 41.7732 566.481 45.9419 565.148Z" fill="#29282D"/>
<path d="M73.991 563.831L81.8899 577.123L74.5366 580.528L66.6378 567.236L73.991 563.831Z" fill="white"/>
<path d="M84.8748 558.799L94.3401 574.77L86.9827 578.168L77.5174 562.198L84.8748 558.799Z" fill="white"/>
<path d="M95.5473 553.268L108.635 575.776L101.248 579.124L88.16 556.615L95.5473 553.268Z" fill="white"/>
<path d="M133.25 582.042L132.755 574.332L56.1464 575.381L37.0451 574.154L36.4613 580.061C36.2595 582.105 37.9961 583.895 40.3137 584.035L56.2413 585L131.21 583.98C132.389 583.963 133.317 583.083 133.25 582.042Z" fill="#DDDDDD"/>
<path d="M208.797 251.577C208.797 237.863 212.456 206.227 192.296 186.377C192.296 186.377 119.792 182.455 104.598 194.627C89.4042 206.798 82.4621 230.283 78.8781 275.037C75.2937 319.791 60.7729 447.285 57.0394 467.437C72.7192 469.468 174.954 479.248 226.242 467.437C226.242 438.564 215.619 347.306 214.499 304.899C213.743 276.253 208.797 265.292 208.797 251.577Z" fill="#27292B"/>
<path d="M70.1458 389.208L130.461 393.72V543.088H86.7713L70.1458 389.208Z" fill="#404B62"/>
<path d="M136.532 402.984C168.595 402.984 194.587 392.114 194.587 378.706C194.587 365.297 168.595 354.428 136.532 354.428C104.47 354.428 78.4779 365.297 78.4779 378.706C78.4779 392.114 104.47 402.984 136.532 402.984Z" fill="#404B62"/>
<path d="M143.749 393.72H205.598V543.088H160.797L143.749 393.72Z" fill="#404B62"/>
<rect width="92.6903" height="155.425" rx="24.4295" transform="matrix(0.961398 0.275161 -0.344698 0.938714 53.5748 181.966)" fill="#36383A"/>
<path d="M66.9831 243.839C69.1712 220.162 91.5746 201.932 118.481 201.932H159.013C187.714 201.932 210.914 222.582 210.681 247.919L210.185 301.725L211.105 385.146H70.8565L61.9684 308.075C61.6275 305.122 61.594 302.147 61.8672 299.189L66.9831 243.839Z" fill="#2D2928"/>
<path d="M218.298 198.003C203.273 185.175 179.113 186.171 165.509 200.18C152.092 213.996 154.385 234.893 170.558 246.177L259.639 308.335C272.852 317.555 292.018 315.624 302.539 304.013C312.409 293.121 311.272 277.388 299.916 267.691L218.298 198.003Z" fill="#36383A"/>
<path d="M82.9241 532.78H130.857V544.629H85.0811L82.9241 532.78Z" fill="#343D51"/>
<path d="M208.029 533.381L155.303 532.78L157.862 544.629H206.569L208.029 533.381Z" fill="#343D51"/>
<path d="M119.174 251.595C119.174 237.877 120.844 206.233 111.644 186.377C111.644 186.377 78.5541 182.454 71.6197 194.629C64.6857 206.804 61.5174 230.295 59.8819 275.061C58.246 319.827 51.6188 447.357 49.9152 467.513C57.0711 469.544 99.2405 476.311 122.753 469.092C122.753 440.21 123.264 347.264 122.753 304.845C122.407 276.191 119.174 265.314 119.174 251.595Z" fill="#36383A"/>
<path d="M89.0571 223.141C102.347 214.567 99.2797 184.107 107.969 184.107C135.316 205.316 131.099 241.644 121.77 293.088C107.458 230.362 99.4077 236.228 89.0571 223.141Z" fill="#5A5E65"/>
<path d="M154.305 250.588C154.305 236.869 155.388 204.784 164.588 184.928H187.283C196.085 184.928 203.912 189.104 205.718 196.71C209.483 212.567 212.393 241.078 213.598 274.053C215.233 318.819 224.778 446.329 226.482 466.485C213.192 468.292 163.956 473.705 140.443 466.485C140.443 437.603 150.216 346.256 150.727 303.837C151.072 275.183 154.305 264.306 154.305 250.588Z" fill="#36383A"/>
<path d="M184.341 221.111C171.051 212.537 174.118 182.076 165.428 182.076C138.082 203.286 142.299 239.613 151.627 291.057C165.94 228.331 173.99 234.197 184.341 221.111Z" fill="#5A5E65"/>
<path d="M122.339 255.768C142.118 250.226 159.937 261.116 172.823 270.158C184.873 280.942 201.554 296.134 201.298 319.681C201.042 343.227 168.047 352.041 156.4 360.527C144.754 369.013 138.742 396.056 122.236 407.142C105.73 418.228 73.8117 428.678 41.1935 402.068C8.57519 375.458 4.54075 352.36 17.8633 326.822C31.1858 301.284 70.848 295.07 84.5275 288.168C98.2076 281.266 102.56 261.31 122.339 255.768Z" fill="#D0B98E"/>
<path d="M86.7134 317.801C86.5351 299.051 105.815 289.063 121.995 289.09C138.176 289.117 153.072 302.831 154.58 319.088C156.088 335.345 141.241 345.696 120.58 347.263C99.919 348.83 86.8918 336.551 86.7134 317.801Z" fill="#AB9265"/>
<path d="M95.0876 317.993C94.9529 303.811 109.52 296.257 121.745 296.277C133.971 296.297 145.225 306.669 146.364 318.966C147.503 331.262 136.285 339.091 120.675 340.277C105.064 341.462 95.2218 332.175 95.0876 317.993Z" fill="#342B29"/>
<path d="M63.2929 328.566C68.147 326.119 77.2351 336.873 87.3015 346.799C98.5758 356.325 110.794 366.504 107.149 368.551C103.503 370.598 95.2454 365.151 91.7027 362.967C88.1599 360.784 79.8096 359.144 73.4891 352.886C67.1692 346.629 66.8437 340.274 65.7125 337.501C64.5813 334.728 58.4392 331.014 63.2929 328.566Z" fill="#967551"/>
<path d="M139.964 285.575L286.162 167.155L302.457 182.236L160.286 306.38L139.964 285.575Z" fill="#967551"/>
<path d="M290.249 158.945C289.392 162.654 286.199 167.757 284.71 169.845L299.945 184.102C300.849 183.061 304.196 180.797 310.351 180.067C318.044 179.155 323.475 172.697 328.682 165.6C333.889 158.503 358.753 151.355 343.743 137.737C328.732 124.12 323.794 139.899 311.195 145.374C298.596 150.85 291.321 154.309 290.249 158.945Z" fill="#D0B98E"/>
<path d="M313.613 134.626C313.41 133.141 314.899 131.053 317.55 130.468C321.384 130.541 348.53 157.722 348.958 159.846C349.386 161.971 346.454 164.243 343.834 163.559C341.213 162.874 313.817 136.112 313.613 134.626Z" fill="#967551"/>
<path d="M304.365 141.435C304.161 139.949 305.65 137.862 308.302 137.277C312.135 137.349 339.282 164.531 339.71 166.655C340.137 168.78 337.205 171.052 334.585 170.367C331.965 169.683 304.569 142.92 304.365 141.435Z" fill="#967551"/>
<path d="M292.676 148.983C292.464 147.445 294.01 145.283 296.76 144.677C300.739 144.753 328.911 172.902 329.355 175.102C329.799 177.302 326.756 179.656 324.037 178.946C321.318 178.237 292.887 150.522 292.676 148.983Z" fill="#967551"/>
<path d="M298.518 157.53C297.842 160.466 295.323 164.507 294.148 166.16L306.165 177.448C306.878 176.623 309.519 174.83 314.374 174.252C320.442 173.529 322.99 167.379 327.097 161.76C328.29 160.128 331.003 156.393 332.319 154.029C335.537 148.251 338.784 144.183 337.613 143.335C336.378 142.44 334.565 140.757 331.92 140.9C327.259 145.255 321.255 144.073 315.042 146.783C305.103 151.119 299.364 153.859 298.518 157.53Z" fill="#E8D6B3"/>
<path d="M303.271 154.718L77.6791 342.607L78.6659 343.531L304.258 155.642L303.271 154.718Z" fill="black"/>
<path d="M317.809 148.432L80.0098 345.402L80.9937 346.328L318.793 149.358L317.809 148.432Z" fill="black"/>
<path d="M329.663 144.001L82.1193 349.324L83.1039 350.249L330.647 144.926L329.663 144.001Z" fill="black"/>
<path d="M331.987 147.008L85.3079 351.638L86.2926 352.563L332.971 147.933L331.987 147.008Z" fill="black"/>
<path d="M317.595 168.323L91.0334 356.616L92.0191 357.541L318.58 169.247L317.595 168.323Z" fill="black"/>
<path d="M326.008 156.208L87.9388 354.442L88.9255 355.366L326.995 157.131L326.008 156.208Z" fill="black"/>
<path d="M97.304 359.429L73.6503 338.965L71.8995 340.53L94.1304 360.97L97.304 359.429Z" fill="#292D34"/>
<path d="M326.739 146.939C329.385 146.989 331.577 145.135 331.634 142.799C331.691 140.462 329.591 138.527 326.945 138.477C324.298 138.427 322.106 140.28 322.05 142.617C321.993 144.954 324.092 146.889 326.739 146.939Z" fill="#231B12"/>
<path d="M334.7 154.708C337.347 154.759 339.539 152.905 339.595 150.569C339.652 148.232 337.553 146.297 334.906 146.247C332.26 146.197 330.068 148.05 330.011 150.387C329.954 152.723 332.054 154.658 334.7 154.708Z" fill="#231B12"/>
<path d="M315.583 152.23C318.229 152.28 320.421 150.426 320.478 148.09C320.535 145.753 318.435 143.818 315.789 143.768C313.142 143.718 310.95 145.571 310.894 147.908C310.837 150.245 312.936 152.18 315.583 152.23Z" fill="#231B12"/>
<path d="M328.233 164.321C330.88 164.371 333.071 162.518 333.128 160.181C333.185 157.845 331.086 155.91 328.439 155.86C325.792 155.809 323.601 157.663 323.544 160C323.487 162.336 325.586 164.271 328.233 164.321Z" fill="#231B12"/>
<path d="M302.958 158.763C305.605 158.813 307.796 156.959 307.853 154.623C307.91 152.286 305.811 150.351 303.164 150.301C300.517 150.251 298.326 152.104 298.269 154.441C298.212 156.778 300.312 158.712 302.958 158.763Z" fill="#231B12"/>
<path d="M319.84 174.321C322.486 174.371 324.678 172.517 324.735 170.181C324.792 167.844 322.692 165.909 320.046 165.859C317.399 165.809 315.207 167.662 315.15 169.999C315.094 172.335 317.193 174.27 319.84 174.321Z" fill="#231B12"/>
<path d="M301.895 279.768L267.905 215.141C263.78 207.298 253.234 203.892 244.35 207.534C235.466 211.176 231.609 220.486 235.734 228.329L269.723 292.956C273.848 300.799 284.394 304.205 293.278 300.563C302.162 296.922 306.02 287.611 301.895 279.768Z" fill="#F4D4C9"/>
<path d="M122.348 318.432L45.0345 296.435C35.7118 293.783 25.7188 298.305 22.7144 306.535C19.71 314.766 24.832 323.588 34.1547 326.241L111.468 348.237C120.791 350.89 130.784 346.368 133.788 338.137C136.793 329.907 131.671 321.084 122.348 318.432Z" fill="#F4D4C9"/>
<rect width="47.1301" height="104.594" rx="13.7311" transform="matrix(0.350933 -0.9364 0.959887 0.280389 6.2381 327.635)" fill="#424648"/>
<rect width="50.6661" height="95.6121" rx="13.4712" transform="matrix(0.927576 -0.373634 0.459111 0.888379 227.955 231.521)" fill="#424648"/>
<path d="M206.24 148.163C221.929 148.163 234.648 136.935 234.648 123.083C234.648 109.232 221.929 98.0027 206.24 98.0027C190.551 98.0027 177.832 109.232 177.832 123.083C177.832 136.935 190.551 148.163 206.24 148.163Z" fill="#EBBAAA"/>
<path d="M72.507 149.433C56.8176 149.433 44.0987 138.204 44.0987 124.353C44.0987 110.501 56.8176 99.2722 72.507 99.2722C88.1963 99.2722 100.915 110.501 100.915 124.353C100.915 138.204 88.1963 149.433 72.507 149.433Z" fill="#EBBAAA"/>
<path d="M63.7521 76.6322C63.7521 40.7571 96.6935 11.6746 137.329 11.6746C177.965 11.6746 210.906 40.7571 210.906 76.6322V107.313L206.04 145.976C203.026 169.921 184.154 190.051 158.103 197.228C144.618 200.943 130.113 200.885 116.676 197.039C91.7851 189.914 73.6996 170.853 70.1171 147.97L63.7521 107.313V76.6322Z" fill="#F4D4C9"/>
<path d="M114.801 55.8968C140.205 42.5667 166.089 51.665 173.758 52.7229C193.171 75.9977 195.567 62.8792 196.526 69.65C197.485 76.4209 204.435 80.0179 206.832 83.6149C209.228 87.2119 205.873 111.968 209.228 111.968C212.584 111.968 211.625 99.0608 212.823 98.8492C213.782 98.68 216.578 99.6249 217.856 100.119C220.013 91.373 224.567 71.6813 225.525 62.8792C226.724 51.8766 219.774 44.471 217.856 41.7204C215.939 38.9697 211.385 30.9293 203.716 22.6774C197.581 16.0758 185.022 12.7327 179.51 15.4834C175.915 11.2516 173.135 0.7145 145.717 0.0374148C111.445 -0.808937 70.7018 12.7327 59.9169 37.7002C55.8599 47.0926 58.0001 48.9144 52.4873 58.4358C46.9744 67.9573 53.9253 103.927 56.8013 103.504C59.6773 103.081 62.3141 100.542 62.3141 101.388C62.3141 103.293 62.0744 110.487 64.2314 110.487C66.3884 110.487 65.19 106.466 65.6694 103.504C66.1487 100.542 66.3884 88.2698 74.7766 83.6149C83.1649 78.9599 92.5118 58.4358 97.0654 58.4358C101.619 58.4358 94.6687 67.111 101.14 67.111C107.611 67.111 103.507 61.8229 114.801 55.8968Z" fill="#613F2B"/>
<path d="M122.355 166.021C131.745 170.626 142.827 170.507 154.784 166.188C156.67 165.507 157.574 163.604 156.802 161.939C156.031 160.273 153.876 159.475 151.989 160.157C141.957 163.78 133.178 163.874 125.94 160.324C124.158 159.45 121.911 160.017 120.921 161.59C119.931 163.163 120.573 165.147 122.355 166.021Z" fill="#C99584"/>
<path d="M167.527 120.854H179.031C182.737 120.854 185.741 118.202 185.741 114.93C185.741 111.658 182.737 109.005 179.031 109.005H167.527C163.82 109.005 160.816 111.658 160.816 114.93C160.816 118.202 163.82 120.854 167.527 120.854Z" fill="black"/>
<path d="M101.618 120.854H114.081C117.787 120.854 120.791 118.202 120.791 114.93C120.791 111.658 117.787 109.005 114.081 109.005H101.618C97.912 109.005 94.9075 111.658 94.9075 114.93C94.9075 118.202 97.912 120.854 101.618 120.854Z" fill="black"/>
<path d="M133.12 126.275C130.209 130.809 128.513 135.763 128.731 139.806C129.032 145.359 132.98 149.093 139.628 149.093V141.899C137.551 141.899 136.973 141.352 136.871 139.463C136.735 136.953 137.996 133.268 140.209 129.822L133.12 126.275Z" fill="#EBBAAA"/>
<path d="M145.963 110.672C144.469 105.743 148.486 100.848 154.256 100.566L194.145 98.6109C199.915 98.3282 204.521 102.8 203.654 107.845L201.156 122.385C200.509 126.148 196.962 128.996 192.656 129.207L159.571 130.828C155.266 131.039 151.383 128.556 150.268 124.878L145.963 110.672Z" fill="white" fill-opacity="0.48"/>
<path fill-rule="evenodd" clip-rule="evenodd" d="M194.924 100.194L194.953 101.465L194.858 101.467C194.829 101.464 194.801 101.461 194.774 101.459L194.923 100.196L194.894 98.9272L194.894 98.9272L194.924 100.194L194.924 100.194ZM204.731 107.68L204.732 107.668L204.734 107.657L203.508 107.545L204.734 107.657C204.853 106.646 204.405 104.576 202.492 102.351C201.42 101.104 199.926 100.293 198.582 99.781C197.234 99.2677 195.921 99.0116 195.072 98.9333L195.072 98.9336L194.983 98.9255L194.894 98.9272V98.9272L153.334 99.6809L153.364 100.953L153.363 100.95L153.334 99.6809L153.269 99.6822L153.204 99.6885L153.204 99.6885C151.857 99.8214 149.029 100.748 146.531 103.255L146.531 103.255C143.951 105.846 143.834 108.681 144.22 110.019L145.396 115.34L145.396 115.34C145.548 116.028 146.304 116.477 147.083 116.343C147.862 116.209 148.371 115.542 148.219 114.854L148.219 114.854L147.035 109.498L145.624 109.741L145.628 109.74L147.035 109.498L147.025 109.453L147.011 109.408L145.628 109.74L145.619 109.742L147.011 109.408C146.843 108.862 146.753 106.877 148.69 104.932L148.691 104.932C150.689 102.927 152.808 102.305 153.469 102.218L194.858 101.467C195.438 101.53 196.42 101.723 197.443 102.112C198.522 102.523 199.532 103.108 200.202 103.887C201.76 105.699 201.899 107.132 201.874 107.388L200.97 113.935L203.824 114.242C203.728 114.938 203.011 115.434 202.223 115.349C201.435 115.264 200.873 114.631 200.97 113.935M203.824 114.242L204.731 107.68ZM203.29 107.524L201.873 107.394C201.873 107.392 201.874 107.39 201.874 107.388L201.876 107.372L203.29 107.524ZM204.706 107.677L203.29 107.524L203.303 107.526L203.305 107.526L204.706 107.677ZM153.469 102.218C153.488 102.216 153.506 102.214 153.523 102.212L153.364 100.953L153.393 102.22L153.469 102.218ZM148.219 114.854L148.219 114.854L145.396 115.34L145.396 115.34L148.219 114.854ZM145.619 109.742L144.236 110.074C144.231 110.056 144.225 110.037 144.22 110.019L144.212 109.984L145.619 109.742ZM148.69 104.932L148.691 104.932L146.531 103.255L146.531 103.255L148.69 104.932ZM153.363 100.95L153.363 100.95L153.204 99.6885L153.204 99.6885L153.363 100.95Z" fill="black"/>
<path d="M74.9405 108.686C74.1774 103.714 78.7022 99.3461 84.3794 99.5742L123.977 101.166C129.853 101.402 133.938 106.42 132.318 111.412L127.823 125.263C126.635 128.923 122.704 131.346 118.403 131.068L85.3424 128.933C81.0476 128.655 77.56 125.76 76.9819 121.993L74.9405 108.686Z" fill="white" fill-opacity="0.48"/>
<path fill-rule="evenodd" clip-rule="evenodd" d="M82.6717 99.0548L82.6717 99.0549L82.6717 99.0549L82.6547 100.321L82.5418 99.0586L82.6065 99.054L82.6717 99.0548ZM82.6546 100.325L82.6547 100.321L82.6549 100.324L82.6717 99.0549L124.237 99.4929L124.22 100.762L124.025 102.02C124.053 102.023 124.081 102.027 124.111 102.031L82.7128 101.594C82.7323 101.592 82.7505 101.591 82.7674 101.59L82.6546 100.325ZM75.7412 102.432C78.3295 99.998 81.19 99.1525 82.5417 99.0586L82.6546 100.325L82.6376 101.594L82.7128 101.594C82.05 101.662 79.9082 102.223 77.8375 104.17L77.8375 104.17L77.8377 104.17L75.7412 102.432ZM73.183 109.13C72.8454 107.783 73.0635 104.95 75.7411 102.432L75.7412 102.432L75.741 102.432L77.8375 104.17C75.8293 106.059 75.8465 108.045 75.9947 108.595L74.5961 108.888L73.1758 109.091L73.183 109.13ZM76.0148 108.686L76.0149 108.686L77.0013 114.073L74.1622 114.478L73.183 109.13C73.1874 109.148 73.1918 109.165 73.1963 109.182L74.5961 108.888L74.6027 108.887L74.5955 108.889L76.0148 108.686L76.0148 108.686ZM76.0148 108.686L74.6027 108.887L75.9947 108.595L76.0066 108.64L76.0148 108.686ZM124.415 99.5048L124.415 99.5044C125.261 99.6068 126.564 99.9001 127.892 100.452C129.217 101.002 130.68 101.856 131.706 103.133L129.36 104.602C128.72 103.805 127.731 103.191 126.668 102.75C125.662 102.332 124.69 102.111 124.111 102.031L124.203 102.032L124.22 100.762L124.22 100.76L124.22 100.762L124.415 99.5048ZM124.415 99.5048L124.327 99.4938L124.237 99.4929L124.22 100.76L124.415 99.5048ZM74.1621 114.478C74.2886 115.17 75.0268 115.641 75.811 115.529C76.5951 115.417 77.1277 114.765 77.0011 114.073L74.1621 114.478ZM133.747 108.523L132.326 108.329L132.334 108.33L133.747 108.523L133.747 108.523ZM132.599 115.057L132.599 115.057L133.747 108.523L133.747 108.523L133.749 108.512L133.751 108.501L132.334 108.33L132.309 108.326L133.751 108.501C133.907 107.493 133.536 105.412 131.706 103.133L129.36 104.602C130.839 106.443 130.935 107.872 130.903 108.143L129.758 114.667L129.757 114.667C129.636 115.36 130.174 116.009 130.958 116.116C131.743 116.223 132.478 115.749 132.599 115.057ZM132.599 115.057L129.758 114.667L129.758 114.667L132.599 115.056C132.599 115.056 132.599 115.056 132.599 115.057ZM130.903 108.143L130.905 108.134L132.309 108.326L130.902 108.156C130.902 108.152 130.903 108.148 130.903 108.143Z" fill="black"/>
<path d="M132.001 109.581C134.247 108.969 140.279 108.081 146.311 109.581" stroke="black" stroke-width="2.5"/>
<path d="M181.525 84.9251L152.366 88.4497C151.862 88.5103 151.5 88.9076 151.54 89.3549L151.917 93.56C151.959 94.0217 152.413 94.3683 152.936 94.3378L181.72 92.6718C181.813 92.6663 181.906 92.6731 181.996 92.6913L192.477 94.8046C193.077 94.9256 193.649 94.5228 193.649 93.9794V91.6295C193.649 91.3324 193.473 91.0574 193.185 90.9042L182.149 85.0385C181.962 84.9386 181.741 84.8989 181.525 84.9251Z" fill="#613F2B"/>
<path d="M94.0903 84.9251L123.249 88.4497C123.753 88.5103 124.115 88.9076 124.075 89.3549L123.697 93.56C123.656 94.0217 123.202 94.3683 122.679 94.3378L93.8952 92.6718C93.8022 92.6663 93.7093 92.6731 93.6191 92.6913L83.1377 94.8046C82.5375 94.9256 81.9657 94.5228 81.9657 93.9794V91.6295C81.9657 91.3324 82.1416 91.0574 82.4297 90.9042L93.4658 85.0385C93.6532 84.9386 93.8737 84.8989 94.0903 84.9251Z" fill="#613F2B"/>
</svg>
